<?xml version="1.0" encoding="utf-8"?>
<!-- Generator: Adobe Illustrator 27.1.1, SVG Export Plug-In . SVG Version: 6.00 Build 0)  -->
<svg version="1.1" id="Layer_1" xmlns="http://www.w3.org/2000/svg" xmlns:xlink="http://www.w3.org/1999/xlink" x="0px" y="0px"
	 viewBox="0 0 163 40" style="enable-background:new 0 0 163 40;" xml:space="preserve">
<style type="text/css">
	.st0{fill:#1F2A3C;}
</style>
<g>
	<path class="st0" d="M28.3,27.5H32l1.8-5.5h10l1.8,5.5h3.7l-8-24.5h-5.1L28.3,27.5z M34.9,18.7l3.9-12.1l4,12.1H34.9z"/>
	<path class="st0" d="M59.3,28c1.5,0,2.9-0.3,4.1-1c1.2-0.7,2.2-1.6,2.9-2.9c0.7-1.2,1.1-2.6,1.1-4.2c0-1.3-0.3-2.5-0.8-3.6
		c-0.5-1.1-1.2-2-2.2-2.7c-1-0.7-2.1-1.2-3.4-1.3l6.1-5.8V3.1H52.4v3.4h10.4L55.2,13l1.7,2.8c0.8-0.4,1.5-0.6,2.3-0.6
		c1.4,0,2.5,0.4,3.3,1.3c0.8,0.9,1.3,2,1.3,3.4c0,1.3-0.4,2.5-1.3,3.3c-0.8,0.9-1.9,1.3-3.3,1.3c-1,0-1.9-0.3-2.7-0.8
		c-0.8-0.6-1.4-1.4-1.7-2.4l-3.4,1c0.4,1.2,0.9,2.2,1.7,3c0.8,0.8,1.7,1.5,2.8,2C56.9,27.8,58,28,59.3,28z"/>
	<path class="st0" d="M71.2,27.5h16.6v-3.4H76.7l7.1-6.3c0.9-0.8,1.6-1.5,2.2-2.2s1-1.4,1.3-2.2c0.3-0.8,0.4-1.7,0.4-2.9
		c0-1.6-0.4-2.9-1.1-4.1C86,5.2,85,4.3,83.8,3.6c-1.2-0.7-2.6-1.1-4.1-1.1c-1.6,0-3.1,0.3-4.3,1c-1.3,0.7-2.2,1.6-3,2.8
		c-0.7,1.2-1.1,2.6-1.1,4.2h3.6c0-0.8,0.2-1.6,0.6-2.3c0.4-0.7,1-1.3,1.7-1.7c0.7-0.4,1.5-0.6,2.4-0.6c1.3,0,2.4,0.4,3.2,1.3
		c0.8,0.9,1.3,2,1.3,3.3c0,0.7-0.2,1.4-0.5,2.1c-0.3,0.7-0.9,1.4-1.8,2.2l-10.7,9.6L71.2,27.5z"/>
	<path class="st0" d="M91.8,27.5h3.6V9.3l12.1,18.2h3.6V3.1h-3.6v18.2L95.4,3.1h-3.6V27.5z"/>
	<g>
		<path class="st0" d="M113.6,27.5h4.4l6.2-9.4l6.2,9.4h4.4l-8.3-12.4l8.1-12.1h-4.4l-5.9,9.1l-6-9.1h-4.4l8.1,12.1L113.6,27.5z"/>
	</g>
</g>
<g>
	<path class="st0" d="M58.6,34.4h-1.3c-0.2-1-0.7-1.4-1.5-1.4c-0.9,0-1.7,0.7-1.7,2.3c0,1.7,0.7,2.5,1.6,2.5c0.8,0,1.3-0.5,1.5-1.3
		h1.3c-0.3,1.5-1.4,2.3-2.9,2.3c-1.7,0-2.9-1.1-2.9-3.3c0-2.2,1.4-3.4,3.1-3.4C57.4,32,58.4,33,58.6,34.4z"/>
	<path class="st0" d="M61.4,33.9h3.8v1h-3.8v3.6H60v-8.3h5.6v1h-4.3V33.9z"/>
	<path class="st0" d="M75.5,38.6h-1.3v-4.1c0-0.9,0-2.1,0-3c-0.2,0.9-0.6,2-0.9,3L72,38.6h-1.5l-1.3-4.1c-0.3-0.9-0.6-2.1-0.9-2.9
		c0,0.9,0,2,0,3v4.1H67v-8.3h2.1l2.2,7.1l2.2-7.1h2.1V38.6z"/>
	<path class="st0" d="M83.1,32.6h-1.4c-0.1-0.9-0.6-1.5-1.6-1.5c-0.8,0-1.4,0.4-1.4,1.1c0,0.8,0.5,1.2,1.8,1.5
		c1.8,0.4,2.7,1.2,2.7,2.6c0,1.5-1.3,2.4-2.9,2.4c-1.9,0-3.1-0.9-3.3-2.6h1.4c0.2,1,0.9,1.6,1.9,1.6c0.9,0,1.5-0.5,1.5-1.2
		c0-0.9-0.5-1.3-1.8-1.6c-1.6-0.4-2.6-1-2.6-2.4c0-1.5,1.3-2.4,2.9-2.4C82,30.1,82.9,31.2,83.1,32.6z"/>
	<path class="st0" d="M83.9,35.6v-0.8h2.6v0.8H83.9z"/>
	<path class="st0" d="M90.9,38.6h-1.5L87,32.2h1.5l1.8,5.4l1.8-5.4h1.4L90.9,38.6z"/>
	<path class="st0" d="M99.9,37.5v1.1h-5.8v-0.7L97,35c1-1,1.5-1.6,1.5-2.4c0-0.8-0.5-1.4-1.4-1.4c-0.9,0-1.4,0.6-1.5,1.7l0,0.1h-1.3
		l0-0.1c0.2-1.8,1.2-2.7,3-2.7s2.6,1,2.6,2.3c0,1.1-0.6,1.9-2,3.3l-1.8,1.8H99.9z"/>
	<path class="st0" d="M102.8,37.8c0,0.5-0.4,0.9-0.9,0.9c-0.5,0-0.9-0.4-0.9-0.9c0-0.5,0.4-0.9,0.9-0.9
		C102.5,37,102.8,37.3,102.8,37.8z"/>
	<path class="st0" d="M110.1,34.4c0,2.5-0.8,4.3-3.1,4.3c-2.3,0-3.1-1.8-3.1-4.3c0-2.5,0.8-4.3,3.1-4.3
		C109.3,30.1,110.1,31.9,110.1,34.4z M108.7,34.4c0-2.1-0.5-3.3-1.7-3.3c-1.2,0-1.7,1.2-1.7,3.3c0,2.1,0.5,3.3,1.7,3.3
		C108.2,37.7,108.7,36.5,108.7,34.4z"/>
</g>
</svg>
